<svg width="45" height="45" viewBox="0 0 45 45" fill="none" xmlns="http://www.w3.org/2000/svg">
<path d="M31.0871 19.9934C28.5908 15.249 23.1697 12.5299 17.6638 13.6884L16.6814 13.8951C11.5578 14.9731 7.85578 19.0944 7.0676 23.9709C4.03575 25.0128 1.85696 27.8893 1.85696 31.2747C1.85696 35.539 5.31386 38.9959 9.57815 38.9959H33.1042C38.4093 38.9959 42.7099 34.6953 42.7099 29.3902C42.7099 23.1326 36.9024 18.7216 31.0871 19.9934Z" fill="#F2F2F2"/>
<path d="M37.6089 19.5427C35.9587 13.3948 29.765 9.52525 23.4614 10.8516C21.8888 11.1825 20.453 11.8065 19.1985 12.6545C19.3273 12.6448 19.4566 12.6371 19.5864 12.6313L20.5862 12.5873C25.4695 12.372 29.8151 15.0337 31.9828 19.0714C33.9304 18.6383 35.8784 18.8434 37.6089 19.5427Z" fill="#FFDF3A"/>
<path d="M26.9259 5.5708C26.4131 5.5708 25.9974 5.98649 25.9974 6.49928V8.362C25.9974 8.87479 26.4131 9.29048 26.9259 9.29048C27.4387 9.29048 27.8544 8.87479 27.8544 8.362V6.49928C27.8544 5.98649 27.4387 5.5708 26.9259 5.5708Z" fill="#FFDF3A"/>
<path d="M15.3995 9.83529C15.0372 10.1982 15.0367 10.787 15.399 11.1499L16.7131 12.466C17.0754 12.8289 17.6633 12.8284 18.0256 12.4655C18.388 12.1026 18.3885 11.5138 18.0262 11.1509L16.7121 9.83477C16.3498 9.4719 15.7618 9.47241 15.3995 9.83529Z" fill="#FFDF3A"/>
<path d="M38.4527 11.1499C38.815 10.787 38.8145 10.1982 38.4522 9.83529C38.0899 9.47241 37.5019 9.4719 37.1396 9.83477L35.8255 11.1509C35.4632 11.5138 35.4637 12.1026 35.826 12.4655C36.1884 12.8284 36.7763 12.8289 37.1386 12.466L38.4527 11.1499Z" fill="#FFDF3A"/>
<path d="M42.7099 20.4495C42.7099 20.9623 42.2943 21.3794 41.7815 21.3794H39.9245C39.4117 21.3794 38.996 20.9623 38.996 20.4495C38.996 19.9367 39.4117 19.5196 39.9245 19.5196H41.7815C42.2943 19.5196 42.7099 19.9367 42.7099 20.4495Z" fill="#FFDF3A"/>
</svg>
